<svg id="Group_7650" data-name="Group 7650" xmlns="http://www.w3.org/2000/svg" width="84" height="84" viewBox="0 0 84 84">
  <path id="Path_2616" data-name="Path 2616" d="M14948.477,22224.514l13.51,13.514,28.045-28.043" transform="translate(-14927.254 -22181.006)" fill="none" stroke="#409d39" stroke-width="6"/>
  <g id="Path_2622" data-name="Path 2622" fill="none">
    <path d="M42,0A42,42,0,1,1,0,42,42,42,0,0,1,42,0Z" stroke="none"/>
    <path d="M 42 6 C 22.14953231811523 6 6 22.14953231811523 6 42 C 6 61.8504638671875 22.14953231811523 78 42 78 C 61.8504638671875 78 78 61.8504638671875 78 42 C 78 22.14953231811523 61.8504638671875 6 42 6 M 42 0 C 65.19596862792969 0 84 18.80403137207031 84 42 C 84 65.19596862792969 65.19596862792969 84 42 84 C 18.80403137207031 84 0 65.19596862792969 0 42 C 0 18.80403137207031 18.80403137207031 0 42 0 Z" stroke="none" fill="#409d39"/>
  </g>
</svg>
